# xmcd CD database file
#
# Track frame offsets:
#	150
#	20187
#	36977
#	53910
#	73432
#	90710
#	109775
#	131697
#	162455
#
# Disc length: 4440 seconds
#
# Revision: 0
# Processed by: cddbd v1.5.1PL0 Copyright (c) Steve Scherf et al.
# Submitted via: CDex 1.51
#
DISCID=87115609
DTITLE=市川由衣 - i-pop mini
DYEAR=2004
DGENRE=JPop
TTITLE0=キラ・キラ
TTITLE1=Peace☆
TTITLE2=pure
TTITLE3=雨
TTITLE4=Fu Fu Fu☆Boyfriend
TTITLE5=orange
TTITLE6=love letter
TTITLE7=愛は勝つ
TTITLE8=@
EXTD=YEAR: 2004
EXTT0=
EXTT1=
EXTT2=
EXTT3=
EXTT4=
EXTT5=
EXTT6=
EXTT7=
EXTT8=
PLAYORDER=
